<?xml version="1.0" standalone="no"?>
<!DOCTYPE svg PUBLIC "-//W3C//DTD SVG 20010904//EN"
 "http://www.w3.org/TR/2001/REC-SVG-20010904/DTD/svg10.dtd">
<svg version="1.0" xmlns="http://www.w3.org/2000/svg"
 width="1275.000000pt" height="1275.000000pt" viewBox="0 0 1275.000000 1275.000000"
 preserveAspectRatio="xMidYMid meet">
<metadata>
Created by potrace 1.14, written by Peter Selinger 2001-2017
</metadata>
<g transform="translate(0.000000,1275.000000) scale(0.100000,-0.100000)"
fill="#000000" stroke="none">
<path d="M6937 10030 c-124 -11 -291 -48 -314 -69 -25 -23 -85 -50 -159 -71
-127 -37 -161 -84 -179 -249 -2 -24 -9 -49 -14 -54 -6 -6 -50 -11 -100 -12
-97 -3 -244 -43 -269 -74 -29 -37 -72 -133 -72 -162 0 -29 -2 -31 -27 -24 -33
8 -43 21 -43 56 0 14 -6 34 -14 44 -23 32 -55 10 -165 -118 -57 -64 -115 -124
-130 -131 -29 -15 -159 -41 -251 -50 -186 -18 -306 -63 -345 -131 -32 -54 -32
-105 0 -173 31 -66 31 -76 2 -89 -13 -6 -48 -33 -78 -61 -51 -46 -55 -54 -51
-86 2 -20 -1 -50 -8 -66 -7 -16 -13 -51 -15 -77 -3 -47 -3 -48 -49 -63 -25 -8
-58 -25 -73 -38 -16 -12 -53 -39 -84 -60 -68 -45 -129 -98 -129 -112 0 -5 -6
-10 -14 -10 -8 0 -16 -4 -18 -10 -1 -5 -23 -14 -48 -18 -25 -5 -58 -20 -74
-33 -54 -46 -84 -82 -79 -95 3 -8 0 -14 -6 -14 -7 0 -9 -11 -7 -27 4 -19 -2
-33 -19 -51 -34 -34 -44 -81 -40 -188 5 -120 29 -172 119 -264 38 -39 81 -78
95 -87 55 -33 138 -142 190 -246 35 -72 72 -127 115 -176 56 -62 68 -83 90
-154 23 -75 39 -209 29 -247 -2 -8 -17 -22 -32 -31 -15 -9 -40 -37 -55 -63
-31 -54 -36 -115 -14 -182 7 -21 12 -50 10 -62 l-4 -24 -24 23 c-13 12 -27 19
-31 16 -8 -9 24 -45 47 -52 12 -4 20 -22 26 -58 4 -28 8 -56 9 -62 1 -5 7 -23
14 -40 7 -16 10 -37 8 -46 -3 -11 7 -21 34 -33 47 -21 79 -60 79 -96 0 -21
-12 -37 -47 -66 -76 -63 -126 -121 -170 -202 -40 -73 -42 -82 -43 -160 l0 -83
-33 -19 c-19 -11 -39 -32 -45 -46 -17 -36 -15 -96 4 -123 13 -18 14 -30 5 -64
-34 -133 -68 -376 -62 -452 1 -20 -1 -26 -7 -17 -6 9 -11 -10 -15 -55 -6 -70
-34 -187 -67 -281 -10 -29 -22 -77 -25 -107 -4 -30 -11 -55 -15 -55 -5 0 -11
-19 -15 -42 -3 -24 -15 -70 -25 -103 -10 -33 -22 -76 -26 -95 -3 -19 -53 -129
-109 -245 -112 -228 -143 -295 -182 -395 -13 -36 -32 -80 -40 -99 -33 -74
-113 -293 -113 -311 0 -10 -4 -21 -9 -25 -5 -3 -15 -31 -21 -63 -7 -31 -16
-62 -21 -68 -5 -6 -14 -34 -20 -63 -6 -29 -17 -65 -25 -79 -8 -15 -14 -34 -14
-42 -1 -8 -8 -33 -16 -55 -8 -22 -21 -65 -28 -95 -8 -30 -18 -68 -24 -85 -16
-47 -51 -205 -58 -265 -4 -30 -13 -73 -22 -95 -13 -34 -16 -113 -17 -525 -1
-267 -5 -496 -9 -508 -9 -28 -13 -49 -26 -165 -11 -96 -12 -104 -30 -188 -11
-47 -16 -56 -31 -52 -10 3 -16 9 -13 14 3 5 1 9 -5 9 -5 0 -11 -4 -13 -9 -1
-5 -25 2 -52 15 -28 13 -55 24 -61 24 -6 0 -18 9 -28 20 -10 12 -21 18 -26 15
-5 -2 -11 2 -15 10 -3 8 -12 15 -21 15 -8 0 -15 4 -15 9 0 6 -16 8 -35 7 -19
-2 -38 0 -41 5 -3 5 -9 7 -13 4 -5 -2 -16 4 -26 15 -10 11 -28 20 -39 20 -12
0 -36 9 -54 20 -19 12 -31 16 -27 10 3 -5 -1 -10 -9 -10 -14 0 -20 11 -17 32
0 4 -6 5 -14 2 -8 -3 -26 4 -41 15 -15 12 -33 21 -40 21 -8 0 -14 4 -14 10 0
5 -11 12 -25 16 -14 3 -25 9 -25 13 0 5 -20 8 -45 7 -43 0 -59 -10 -33 -18 7
-3 2 -7 -10 -10 -17 -5 -29 0 -45 18 -30 34 -117 30 -117 -6 0 -26 -66 -51
-129 -48 -36 2 -56 -2 -59 -10 -2 -6 -15 -12 -28 -12 -13 0 -24 -3 -24 -7 0
-5 -24 -8 -52 -7 -29 0 -84 -7 -122 -16 -50 -13 -79 -15 -103 -8 -34 9 -43 6
-86 -38 -19 -20 -22 -20 -82 -6 -61 15 -64 15 -90 -6 -19 -15 -35 -20 -51 -16
-13 3 -24 2 -24 -4 0 -20 -90 -36 -102 -18 -5 7 -8 7 -8 -1 0 -7 -12 -14 -27
-14 -18 -1 -22 -3 -10 -6 11 -3 17 -12 15 -21 -3 -12 -13 -16 -36 -14 -18 1
-32 -2 -32 -8 0 -5 -11 -10 -25 -10 -14 0 -25 -3 -25 -8 0 -14 -66 -43 -109
-47 -26 -2 -48 -11 -57 -22 -16 -22 -18 -33 -4 -33 15 0 -17 -58 -40 -73 -11
-6 -20 -22 -20 -34 0 -13 -4 -23 -10 -23 -5 0 -7 -7 -4 -15 4 -8 1 -15 -6 -15
-7 0 -10 -6 -7 -14 6 -16 -49 -80 -62 -71 -9 5 -37 -8 -86 -40 -23 -16 -49
-21 -125 -23 -127 -4 -191 -12 -215 -28 -16 -12 604 -14 3957 -14 l3977 0 -9
31 c-5 17 -12 70 -15 117 -3 48 -12 130 -20 182 -8 52 -19 178 -25 280 -6 101
-15 187 -20 190 -5 3 -13 87 -18 186 -5 99 -14 189 -20 200 -5 10 -15 94 -21
187 -6 92 -15 175 -19 185 -5 9 -12 60 -16 112 -3 52 -13 131 -21 175 -39 211
-47 269 -56 380 -5 66 -16 145 -24 176 -8 31 -15 81 -15 110 -1 30 -5 74 -11
99 -5 25 -18 95 -29 155 -11 61 -24 133 -30 160 -5 28 -24 120 -40 205 -16 85
-36 187 -45 225 -8 39 -21 104 -30 145 -49 241 -95 444 -149 647 -42 163 -52
192 -86 268 -42 92 -45 114 -46 355 -1 217 -15 363 -44 440 -5 14 -14 49 -19
78 -14 67 -33 104 -83 165 -39 47 -40 49 -22 68 22 25 58 82 80 128 8 19 29
51 46 72 17 21 27 43 23 49 -4 6 -24 18 -45 26 -50 20 -59 50 -18 59 16 4 49
8 71 9 35 2 43 6 45 24 2 12 8 22 13 22 6 0 25 10 42 23 34 24 188 89 222 93
45 5 179 35 195 44 24 13 40 62 40 124 0 79 7 93 46 99 31 5 101 43 258 139
27 16 83 47 123 69 93 49 246 151 296 198 67 62 121 153 206 343 12 26 21 55
21 64 0 9 6 30 14 47 29 65 66 286 66 394 0 40 7 112 15 160 38 224 47 394 24
475 -7 23 -14 51 -15 60 -1 10 -6 23 -12 30 -5 7 -13 38 -17 68 -13 112 -31
153 -87 206 -37 35 -72 86 -116 165 -81 148 -107 186 -223 327 -151 184 -303
318 -534 472 -44 29 -82 56 -85 59 -9 12 -295 151 -309 151 -7 0 -30 8 -50 19
-20 10 -53 26 -74 35 -23 10 -42 26 -48 43 -64 162 -58 158 -228 160 -130 1
-226 15 -296 43 -39 15 -234 21 -358 10z m17 -64 c-3 -11 -8 -29 -10 -38 -3
-9 -14 -20 -25 -23 -10 -4 -19 -11 -19 -16 0 -5 -5 -9 -11 -9 -6 0 -7 5 -2 13
4 6 9 17 10 22 14 57 28 82 45 77 13 -3 17 -10 12 -26z m-1264 -1120 c0 -3 -4
-8 -10 -11 -5 -3 -10 -1 -10 4 0 6 5 11 10 11 6 0 10 -2 10 -4z m-20 -38 c0
-5 -7 -16 -16 -25 -8 -9 -13 -21 -10 -28 3 -8 -5 -12 -21 -12 -14 0 -28 -5
-32 -10 -3 -6 -15 -7 -26 -2 -11 4 -15 8 -10 9 6 1 -1 5 -15 10 l-25 7 28 11
c15 7 30 19 33 27 4 8 17 15 30 15 13 0 24 4 24 9 0 5 9 7 20 4 11 -3 20 -10
20 -15z m-160 -72 c0 -3 -4 -8 -10 -11 -5 -3 -10 -1 -10 4 0 6 5 11 10 11 6 0
10 -2 10 -4z m-313 -143 c-9 -9 -20 -13 -24 -9 -4 4 -1 11 7 16 25 16 35 11
17 -7z m-21 -35 c1 -10 -2 -20 -7 -24 -5 -3 -9 2 -9 10 0 9 -7 16 -15 16 -8 0
-15 5 -15 11 0 18 43 5 46 -13z m-41 -4 c20 -16 20 -16 -2 -9 -18 5 -22 3 -17
-9 3 -9 2 -16 -4 -16 -13 0 -21 21 -14 38 5 16 13 15 37 -4z m1300 -2946 c48
-10 85 -31 85 -50 0 -4 -37 -6 -82 -4 -79 4 -84 3 -103 -21 -16 -20 -26 -23
-48 -18 -15 4 -27 13 -27 21 0 8 -4 14 -10 14 -5 0 -10 11 -10 25 0 17 -6 25
-17 25 -16 0 -16 2 -3 10 19 13 148 11 215 -2z m-242 -41 c36 -37 31 -45 -29
-49 -52 -3 -55 -2 -49 19 3 12 0 25 -7 29 -9 6 -5 10 12 15 41 12 50 10 73
-14z m-1533 -59 c-37 -72 -60 -102 -60 -77 0 35 34 110 57 129 15 11 28 18 31
16 2 -3 -10 -33 -28 -68z m1395 42 c4 -6 -6 -10 -22 -10 -22 0 -25 2 -13 10
19 12 27 12 35 0z m315 -16 c0 -8 -4 -12 -10 -9 -5 3 -10 10 -10 16 0 5 5 9
10 9 6 0 10 -7 10 -16z m-1723 -151 c-16 -16 -17 -16 -17 3 0 11 3 24 7 27 4
4 11 3 17 -3 7 -7 5 -16 -7 -27z m1093 -290 c0 -32 -16 -29 -33 6 -13 27 -13
30 2 33 20 5 31 -9 31 -39z m-91 -47 c12 -9 12 -7 1 14 -13 24 -13 24 10 9 27
-18 44 -65 28 -76 -6 -3 -26 -6 -45 -5 -20 1 -31 -3 -28 -8 3 -6 -1 -10 -9
-10 -9 0 -16 5 -16 11 0 5 -5 7 -11 3 -8 -4 -8 -9 0 -17 15 -15 14 -37 -3 -37
-8 0 -16 16 -20 40 -4 26 -11 40 -21 40 -8 0 -15 9 -15 20 0 11 6 20 14 20 7
0 19 6 25 14 10 12 19 12 44 4 18 -6 38 -16 46 -22z m-166 -7 c11 -15 16 -17
21 -7 3 7 4 1 1 -14 -3 -16 -1 -28 5 -28 12 0 13 -27 1 -32 -4 -1 -5 -12 0
-23 7 -19 8 -19 8 3 1 27 24 25 32 -3 7 -26 0 -45 -16 -45 -7 0 -15 -7 -19
-15 -9 -24 -53 -19 -62 8 -4 12 -11 25 -17 29 -6 3 -11 26 -11 50 -1 24 -5 49
-9 56 -6 9 1 14 23 19 22 4 28 8 18 14 -9 6 -9 9 -1 9 6 0 18 -9 26 -21z
m1077 -25 c51 -28 71 -57 51 -77 -6 -6 -11 -16 -11 -21 0 -6 5 -4 10 4 8 12
10 11 10 -6 0 -11 9 -30 19 -41 11 -12 17 -24 14 -27 -10 -10 27 -7 48 4 17
10 19 7 19 -19 0 -16 7 -36 15 -45 8 -8 15 -24 15 -35 0 -11 5 -23 10 -26 6
-3 10 -1 10 6 0 7 7 4 15 -7 19 -25 19 -38 0 -30 -25 9 -17 -8 23 -52 22 -23
38 -43 36 -44 -1 -2 13 -3 32 -4 41 -1 44 -3 50 -46 4 -25 2 -29 -5 -18 -9 13
-11 13 -11 -2 0 -11 -6 -15 -20 -11 -11 3 -17 9 -14 14 3 5 10 7 15 4 5 -4 9
1 9 9 0 18 -16 21 -25 6 -10 -17 -25 -11 -18 7 4 10 2 14 -5 9 -6 -3 -25 12
-44 35 -18 23 -54 65 -80 95 -26 30 -50 64 -54 76 -6 21 -182 188 -198 188 -4
0 -16 8 -27 19 -18 17 -18 19 -3 25 12 5 13 10 6 19 -22 26 56 19 108 -9z
m140 -74 c26 -22 30 -29 18 -30 -10 0 -18 6 -19 13 0 10 -2 10 -6 0 -5 -14
-33 -18 -33 -5 0 4 -3 17 -6 30 -8 30 5 28 46 -8z m-1345 0 c-4 -6 -1 -17 5
-25 10 -12 9 -15 -4 -15 -9 0 -16 -4 -16 -10 0 -6 9 -6 24 0 21 7 24 6 24 -16
0 -14 -6 -24 -15 -24 -8 0 -11 -5 -7 -11 3 -6 20 -9 36 -7 40 6 44 -7 9 -31
-32 -23 -51 -27 -51 -10 0 5 -8 9 -17 8 -35 -3 -40 1 -36 29 3 15 7 34 10 42
4 8 5 18 5 23 -1 4 3 7 8 7 6 0 10 7 10 16 0 8 -4 12 -10 9 -6 -3 -7 1 -4 9 3
9 13 16 21 16 8 0 11 -5 8 -10z m-25 -175 c0 -8 -7 -15 -16 -15 -14 0 -14 3
-4 15 7 8 14 15 16 15 2 0 4 -7 4 -15z m1623 -132 c-7 -2 -19 -2 -25 0 -7 3
-2 5 12 5 14 0 19 -2 13 -5z m-1357 -855 c-5 -55 -47 -78 -76 -43 -11 13 -7
16 20 21 28 6 31 10 27 33 -5 21 -2 27 13 28 17 2 19 -4 16 -39z m-66 12 c0
-5 -5 -10 -11 -10 -5 0 -7 5 -4 10 3 6 8 10 11 10 2 0 4 -4 4 -10z m30 -5 c0
-8 -4 -15 -10 -15 -5 0 -10 7 -10 15 0 8 5 15 10 15 6 0 10 -7 10 -15z m145
-5 c3 -5 -1 -10 -9 -10 -9 0 -16 5 -16 10 0 6 4 10 9 10 6 0 13 -4 16 -10z
m-29 -18 c6 -4 13 -15 17 -24 3 -10 13 -18 22 -18 20 0 19 -16 -1 -24 -28 -11
-46 -7 -40 9 3 9 -3 23 -14 32 -11 10 -20 21 -20 25 0 10 22 10 36 0z m51 -18
c-3 -3 -12 -4 -19 -1 -8 3 -5 6 6 6 11 1 17 -2 13 -5z m1889 -59 c17 -16 14
-18 -10 -9 -9 3 -16 10 -16 15 0 13 9 11 26 -6z m-2041 -57 c5 -18 3 -28 -4
-28 -6 0 -11 4 -11 8 0 4 -12 8 -27 7 -22 0 -29 5 -31 23 -4 27 24 31 31 5 4
-15 6 -14 12 5 9 27 21 19 30 -20z m2050 15 c-3 -10 -1 -13 9 -10 8 3 16 -2
19 -14 4 -15 2 -19 -10 -15 -8 3 -18 6 -23 6 -4 0 -13 13 -18 29 -9 26 -8 28
9 24 13 -4 18 -11 14 -20z m-1943 -10 c9 -3 19 -12 22 -20 5 -11 2 -13 -11 -8
-37 15 -56 15 -24 0 l34 -15 -22 -21 c-31 -29 -56 -21 -55 16 3 67 3 67 22 60
9 -4 25 -9 34 -12z m-112 -57 c0 -3 -4 -8 -10 -11 -5 -3 -10 -1 -10 4 0 6 5
11 10 11 6 0 10 -2 10 -4z m-1380 -24 c0 -15 -11 -21 -27 -15 -12 5 -12 7 -1
14 17 11 28 11 28 1z m3515 -28 c14 -15 25 -36 25 -47 0 -16 -5 -18 -27 -12
-31 7 -44 22 -36 41 2 6 -1 15 -6 19 -13 7 -5 25 10 25 6 0 21 -12 34 -26z
m-3543 -16 c-9 -9 -15 -9 -24 0 -9 9 -7 12 12 12 19 0 21 -3 12 -12z m1158
-1747 c0 -6 -4 -13 -10 -16 -5 -3 -10 1 -10 9 0 9 5 16 10 16 6 0 10 -4 10 -9z
m63 -38 c-7 -2 -13 -11 -13 -19 0 -8 -4 -14 -10 -14 -5 0 -10 9 -10 20 0 14 6
20 23 19 12 0 16 -3 10 -6z m-3 -123 c0 -5 -5 -10 -11 -10 -8 0 -8 -5 1 -15 8
-9 9 -15 2 -15 -15 0 -25 18 -18 35 6 17 26 20 26 5z m-30 -44 c0 -3 -4 -8
-10 -11 -5 -3 -10 -1 -10 4 0 6 5 11 10 11 6 0 10 -2 10 -4z m1830 -345 c5 7
11 11 14 9 2 -3 -4 -15 -13 -27 l-18 -22 0 32 c0 18 2 23 4 13 4 -15 7 -16 13
-5z m-39 -14 c-13 -13 -26 -3 -16 12 3 6 11 8 17 5 6 -4 6 -10 -1 -17z m157
-30 c2 -10 -3 -17 -12 -17 -10 0 -16 9 -16 21 0 24 23 21 28 -4z m-148 -13 c0
-8 -7 -14 -15 -14 -15 0 -21 21 -9 33 10 9 24 -2 24 -19z m30 -3 c0 -6 -4 -13
-10 -16 -5 -3 -10 1 -10 9 0 9 5 16 10 16 6 0 10 -4 10 -9z"/>
<path d="M6340 5579 c0 -5 5 -7 10 -4 6 3 10 8 10 11 0 2 -4 4 -10 4 -5 0 -10
-5 -10 -11z"/>
<path d="M5441 4974 c0 -11 3 -14 6 -6 3 7 2 16 -1 19 -3 4 -6 -2 -5 -13z"/>
<path d="M5485 4921 c-3 -5 -2 -12 3 -15 5 -3 9 1 9 9 0 17 -3 19 -12 6z"/>
<path d="M6502 4990 c0 -14 2 -19 5 -12 2 6 2 18 0 25 -3 6 -5 1 -5 -13z"/>
<path d="M12130 3918 c0 -3 -9 -4 -20 -1 -11 3 -20 0 -20 -5 0 -8 -22 -10 -65
-7 -44 3 -65 1 -65 -6 0 -7 -8 -18 -17 -25 -10 -7 -14 -16 -10 -20 4 -5 12 -2
17 6 6 10 10 11 10 3 0 -18 -34 -33 -50 -23 -9 6 -17 5 -21 -2 -8 -12 -96 -42
-152 -52 -21 -4 -41 -14 -44 -21 -3 -8 -9 -12 -14 -9 -5 3 -9 -2 -9 -10 0 -9
-12 -19 -27 -22 -16 -4 -31 -12 -35 -18 -5 -6 -8 -1 -8 12 0 13 -4 20 -10 17
-6 -3 -13 0 -15 8 -8 19 -35 15 -63 -8 -13 -11 -33 -28 -44 -37 -12 -10 -27
-18 -35 -18 -15 0 -95 -38 -103 -49 -3 -4 -26 -15 -52 -25 -27 -10 -48 -24
-48 -31 0 -7 -5 -15 -11 -17 -6 -2 -12 -18 -12 -36 -1 -18 -5 -32 -9 -32 -5 0
-8 -4 -8 -9 0 -5 8 -7 19 -4 10 3 22 0 25 -6 4 -6 2 -11 -3 -11 -17 0 -13 -37
4 -44 12 -4 14 -15 9 -48 -4 -24 -11 -53 -15 -65 -5 -14 -5 -23 1 -23 12 0
-10 -52 -27 -63 -7 -4 -13 -16 -13 -26 0 -25 -30 -84 -49 -96 -18 -11 -40 -16
-88 -18 -21 -2 -38 -10 -48 -25 -9 -12 -23 -22 -31 -22 -8 0 -14 -5 -14 -11 0
-6 -9 -8 -20 -4 -11 3 -20 2 -20 -3 0 -4 -15 -9 -32 -9 -18 -1 -58 -6 -88 -12
-30 -6 -79 -12 -107 -12 -29 -1 -53 -4 -53 -8 0 -3 -19 -15 -43 -26 l-43 -19
6 -43 c4 -24 5 -43 2 -43 -3 0 5 -11 18 -25 13 -14 31 -25 41 -25 16 0 36 -34
31 -53 -1 -4 5 -10 15 -14 24 -9 56 -44 58 -62 1 -23 15 -42 25 -36 5 3 11 -4
15 -15 3 -11 10 -20 15 -20 4 0 11 -11 14 -25 6 -24 26 -35 26 -14 0 5 4 8 9
4 17 -10 70 58 109 137 28 59 41 77 54 74 10 -2 35 5 55 15 21 11 49 18 63 17
23 -3 25 -7 25 -48 0 -35 4 -45 20 -50 53 -16 85 -33 85 -44 0 -7 16 -21 35
-32 19 -10 30 -21 25 -24 -6 -4 -6 -18 -1 -37 6 -20 5 -35 -2 -42 -19 -19 2
-25 39 -12 38 14 59 7 34 -10 -12 -9 -12 -10 3 -5 11 3 27 -2 39 -14 13 -11
16 -20 9 -20 -9 0 -8 -5 3 -16 9 -8 16 -22 16 -30 0 -11 6 -14 23 -9 14 4 18
3 9 -3 -7 -5 -10 -16 -6 -25 4 -12 1 -17 -12 -18 -11 -1 -6 -5 11 -9 17 -4 22
-8 12 -9 -45 -3 -56 -61 -11 -61 29 0 40 16 24 35 -9 11 -9 15 -1 15 6 0 11
-4 11 -10 0 -5 7 -10 15 -10 20 0 31 -32 34 -94 1 -28 4 -53 7 -57 4 -7 -4
-26 -24 -58 -1 -3 -9 4 -16 15 -8 10 -13 21 -11 25 2 3 -9 13 -26 23 -29 17
-29 17 -29 -8 0 -14 8 -30 18 -35 11 -7 13 -10 3 -11 -8 0 -11 -7 -8 -20 3
-11 2 -18 -2 -16 -4 3 -12 -14 -18 -37 -16 -58 -55 -99 -88 -93 -27 5 -32 -3
-13 -22 9 -9 8 -12 -8 -12 -11 0 -24 -4 -29 -9 -6 -5 -35 -5 -70 1 -79 12 -98
12 -110 -5 -5 -8 -16 -12 -22 -10 -7 3 -13 0 -13 -6 0 -6 -7 -11 -15 -11 -16
0 -29 -8 -71 -48 -14 -12 -29 -22 -34 -22 -6 0 -10 -9 -10 -20 0 -11 -4 -20
-8 -20 -4 0 -8 -28 -8 -63 0 -34 -6 -86 -13 -114 -10 -41 -10 -61 -2 -85 11
-32 10 -34 -35 -73 -25 -22 -69 -61 -96 -87 -27 -27 -53 -48 -58 -48 -6 0 -10
-6 -10 -12 0 -7 -11 -18 -25 -25 -14 -6 -23 -7 -19 -2 9 15 -79 10 -110 -6
-15 -8 -38 -13 -50 -10 -27 7 -81 -8 -81 -22 0 -6 -11 -20 -24 -30 -33 -27
-36 -51 -6 -45 12 2 26 -1 29 -7 4 -6 16 -11 27 -11 18 0 19 -2 5 -15 -8 -8
-19 -15 -24 -15 -7 0 -9 -33 -2 -50 1 -3 2 -8 1 -12 0 -5 6 -8 14 -8 8 0 15
-7 15 -15 0 -8 5 -15 11 -15 5 0 8 -4 5 -9 -3 -4 3 -16 14 -26 11 -10 20 -27
20 -37 0 -11 5 -16 10 -13 6 4 10 -6 11 -22 0 -15 3 -22 6 -15 6 14 23 16 23
2 0 -5 -19 -22 -42 -36 -24 -15 -44 -31 -46 -35 -2 -5 -13 -9 -25 -10 -12 0
-17 -3 -10 -5 8 -4 6 -11 -8 -25 -10 -10 -21 -19 -23 -19 -9 0 -66 -62 -66
-71 0 -5 -4 -9 -10 -9 -5 0 -10 -4 -10 -10 0 -5 15 -10 34 -10 38 0 53 -14 50
-48 -1 -13 4 -22 12 -22 8 0 14 -9 14 -21 0 -11 5 -17 10 -14 6 3 10 1 10 -4
0 -6 8 -19 19 -30 21 -21 20 -93 -5 -199 -7 -35 -14 -81 -14 -102 0 -21 -6
-45 -13 -52 -8 -7 -12 -19 -9 -26 2 -6 -3 -12 -12 -12 -9 0 -16 -4 -16 -10 0
-5 -18 -10 -40 -10 -29 0 -40 -4 -40 -15 0 -9 6 -12 16 -8 12 4 15 2 12 -8 -3
-9 -22 -15 -51 -17 -51 -3 -64 12 -20 23 20 5 24 8 13 15 -8 5 -21 5 -31 -1
-31 -16 -59 -11 -59 11 0 26 -26 38 -82 38 -26 0 -52 3 -58 7 -21 13 -68 16
-75 5 -5 -8 -11 -8 -21 1 -10 8 -14 8 -14 1 0 -6 -6 -9 -13 -6 -7 2 -25 -6
-40 -20 -14 -13 -28 -21 -31 -19 -3 3 -8 -2 -12 -11 -3 -9 -10 -14 -14 -11 -5
3 -11 -3 -14 -13 -4 -10 -18 -25 -31 -32 -19 -10 -22 -16 -13 -22 7 -4 673 -8
1481 -8 l1467 0 0 1015 c0 663 -4 1014 -10 1010 -6 -3 -10 -2 -10 4 0 5 6 11
13 14 8 3 4 11 -11 22 -23 17 -23 18 -5 37 17 19 18 60 20 727 l3 706 -93 62
c-51 34 -101 65 -112 69 -11 4 -38 19 -60 32 -22 14 -41 24 -42 21 0 -2 -13 8
-27 24 -14 15 -20 27 -14 27 11 0 -63 73 -85 84 -6 3 -36 20 -66 37 -29 16
-60 28 -68 25 -8 -3 -12 -2 -9 3 3 5 -5 8 -19 7 -14 0 -25 -4 -25 -8z m-815
-908 c-3 -5 -11 -10 -16 -10 -6 0 -7 5 -4 10 3 6 11 10 16 10 6 0 7 -4 4 -10z
m-1130 -2900 c3 -5 1 -10 -4 -10 -6 0 -11 5 -11 10 0 6 2 10 4 10 3 0 8 -4 11
-10z"/>
<path d="M11510 2289 c0 -5 5 -7 10 -4 6 3 10 8 10 11 0 2 -4 4 -10 4 -5 0
-10 -5 -10 -11z"/>
<path d="M11448 2263 c7 -3 16 -2 19 1 4 3 -2 6 -13 5 -11 0 -14 -3 -6 -6z"/>
</g>
</svg>
